<svg width="343" height="34" viewBox="0 0 343 34" fill="none" xmlns="http://www.w3.org/2000/svg">
<path d="M322.4 26.4L339.85 18.92C340.66 18.57 340.66 17.43 339.85 17.08L322.4 9.60002C321.74 9.31002 321.01 9.80002 321.01 10.51L321 15.12C321 15.62 321.37 16.05 321.87 16.11L336 18L321.87 19.88C321.37 19.95 321 20.38 321 20.88L321.01 25.49C321.01 26.2 321.74 26.69 322.4 26.4Z" fill="#323232"/>
<rect x="0.5" y="0.5" width="310" height="33" rx="16.5" fill="#FAFAFA"/>
<path d="M22.544 19.344V15.296H24.72V22.384H25.744V9.488H24.72V14.416H22.544V10.784H17.168V19.344H22.544ZM21.52 18.48H18.192V11.648H21.52V18.48ZM28.384 23.12V9.136H27.36V23.12H28.384ZM42.2278 23.12V9.136H41.2038V23.12H42.2278ZM39.4598 22.384V9.488H38.4518V14.272H35.9718V15.136H38.4518V22.384H39.4598ZM37.4918 18.784C36.0038 17.792 34.3878 15.824 34.3878 13.072V10.576H33.3638V13.088C33.3638 15.76 31.7158 18.192 30.1798 19.152L30.8838 19.904C32.3078 18.832 33.6038 16.96 33.8918 15.328C34.3398 16.976 35.6358 18.656 36.7718 19.52L37.4918 18.784ZM52.9035 18.832C51.0315 17.84 49.1595 15.584 49.1595 13.088V11.488H52.5195V10.608H44.8075V11.488H48.1035V13.12C48.1035 15.664 46.3595 18.016 44.3915 19.216L45.0635 20C46.6795 18.848 48.1515 17.136 48.6475 15.28C49.1595 17.04 50.9195 18.704 52.2315 19.6L52.9035 18.832ZM54.6635 9.136V23.12H55.6875V9.136H54.6635ZM70.7633 16.576V15.76H58.1393V16.576H70.7633ZM69.6433 22.816V21.936H60.7473V20.608H69.1633V17.808H59.6913V18.624H68.1393V19.824H59.7233V22.816H69.6433ZM69.3233 14.496V13.664H60.8593V12.48H69.0833V9.616H59.8193V10.464H68.0593V11.664H59.8353V14.496H69.3233ZM87.5781 16.624V9.136H86.5541V16.624H87.5781ZM87.5941 22.928V17.408H86.5701V19.312H79.6421V17.408H78.6181V22.928H87.5941ZM86.5701 22.08H79.6421V20.16H86.5701V22.08ZM80.1221 9.84C78.2021 9.84 76.6341 11.088 76.6341 13.024C76.6341 14.944 78.2181 16.176 80.1221 16.176C82.0101 16.176 83.6101 14.928 83.6101 13.008C83.6101 11.072 81.9941 9.84 80.1221 9.84ZM80.1221 10.768C81.5941 10.768 82.5701 11.68 82.5701 13.024C82.5701 14.352 81.5941 15.264 80.1221 15.264C78.7141 15.264 77.6581 14.336 77.6581 13.008C77.6581 11.648 78.7141 10.768 80.1221 10.768ZM97.5819 16.736L97.4859 15.872C95.6459 16.176 93.5179 16.192 91.6139 16.144V13.824H96.6699V9.968H90.5739V10.832H95.6459V12.944H90.5899V17.04C93.8059 17.056 95.6459 17.04 97.5819 16.736ZM97.6939 12.16H100.398V14.32H97.6939V15.152H100.398V17.792H101.422V9.136H100.398V11.328H97.6939V12.16ZM91.9979 18.544V19.408H100.398V23.232H101.422V18.544H91.9979ZM116.898 15.968V15.088H114.562V9.136H113.538V23.12H114.562V15.968H116.898ZM109.89 11.072V10.16H105.842V11.072H109.89ZM112.002 13.392V12.528H103.826V13.392H112.002ZM111.25 17.264C111.25 15.648 109.97 14.4 108.034 14.4C106.098 14.4 104.802 15.648 104.802 17.264C104.802 18.848 106.098 20.096 108.034 20.096C109.97 20.096 111.25 18.848 111.25 17.264ZM110.226 17.264C110.226 18.416 109.282 19.248 108.034 19.248C106.786 19.248 105.842 18.416 105.842 17.264C105.842 16.096 106.786 15.28 108.034 15.28C109.282 15.28 110.226 16.096 110.226 17.264ZM129.493 23.12V9.136H128.469V23.12H129.493ZM126.725 22.384V9.488H125.717V14.272H123.237V15.136H125.717V22.384H126.725ZM124.757 18.784C123.269 17.792 121.653 15.824 121.653 13.072V10.576H120.629V13.088C120.629 15.76 118.981 18.192 117.445 19.152L118.149 19.904C119.573 18.832 120.869 16.96 121.157 15.328C121.605 16.976 122.901 18.656 124.037 19.52L124.757 18.784ZM142.745 13.696C142.745 11.536 140.809 10.112 137.849 10.112C134.921 10.112 132.985 11.536 132.985 13.696C132.985 15.856 134.921 17.264 137.849 17.264C140.793 17.264 142.745 15.856 142.745 13.696ZM141.737 13.696C141.737 15.328 140.185 16.368 137.849 16.368C135.529 16.368 133.993 15.328 133.993 13.696C133.993 12.08 135.529 11.024 137.849 11.024C140.201 11.024 141.737 12.08 141.737 13.696ZM144.185 21.328V20.448H140.921V17.6H139.897V20.448H135.817V17.6H134.793V20.448H131.561V21.328H144.185ZM145.485 21.648H146.813V20.304H145.485V21.648Z" fill="#BCBCBC"/>
<rect x="0.5" y="0.5" width="310" height="33" rx="16.5" stroke="#EAECEF"/>
</svg>
